<?xml version="1.0" encoding="UTF-8" standalone="no"?>
<!DOCTYPE svg PUBLIC "-//W3C//DTD SVG 1.1//EN"
 "http://www.w3.org/Graphics/SVG/1.1/DTD/svg11.dtd">
<!-- Generated by graphviz version 2.38.0 (20140413.2041)
 -->
<!-- Title: classes Pages: 1 -->
<svg width="638pt" height="368pt"
 viewBox="0.00 0.00 638.00 368.00" xmlns="http://www.w3.org/2000/svg" xmlns:xlink="http://www.w3.org/1999/xlink">
<g id="graph0" class="graph" transform="scale(1 1) rotate(0) translate(4 364)">
<title>classes</title>
<polygon fill="white" stroke="none" points="-4,4 -4,-364 634,-364 634,4 -4,4"/>
<!-- Setting -->
<g id="node1" class="node"><title>Setting</title>
<polygon fill="#9ec6e0" stroke="#9ec6e0" points="54,-225 0,-225 0,-189 54,-189 54,-225"/>
<text text-anchor="middle" x="27" y="-204.5" font-family="Sans" font-size="10.00" fill="#000000">Setting</text>
</g>
<!-- Overlay -->
<g id="node2" class="node"><title>Overlay</title>
<polygon fill="#2980b9" stroke="#2980b9" points="150.5,-279 96.5,-279 96.5,-243 150.5,-243 150.5,-279"/>
<text text-anchor="middle" x="123.5" y="-258.5" font-family="Sans" font-size="10.00" fill="#ffffff">Overlay</text>
</g>
<!-- Overlay&#45;&gt;Setting -->
<g id="edge1" class="edge"><title>Overlay&#45;&gt;Setting</title>
<path fill="none" stroke="black" d="M114,-242.87C114,-232.685 114,-222 114,-222 114,-222 64.0504,-222 64.0504,-222"/>
<polygon fill="black" stroke="black" points="64.0505,-218.5 54.0504,-222 64.0504,-225.5 64.0505,-218.5"/>
</g>
<!-- OverlayParam -->
<g id="node3" class="node"><title>OverlayParam</title>
<polygon fill="#2980b9" stroke="#2980b9" points="289.5,-306 206.5,-306 206.5,-270 289.5,-270 289.5,-306"/>
<text text-anchor="middle" x="248" y="-285.5" font-family="Sans" font-size="10.00" fill="#ffffff">OverlayParam</text>
</g>
<!-- OverlayParam&#45;&gt;Overlay -->
<g id="edge2" class="edge"><title>OverlayParam&#45;&gt;Overlay</title>
<path fill="none" stroke="black" d="M206.197,-274.5C206.197,-274.5 160.531,-274.5 160.531,-274.5"/>
<polygon fill="black" stroke="black" points="160.531,-271 150.531,-274.5 160.531,-278 160.531,-271"/>
</g>
<!-- OverlayParamInt -->
<g id="node4" class="node"><title>OverlayParamInt</title>
<polygon fill="#2980b9" stroke="#2980b9" points="449,-360 354,-360 354,-324 449,-324 449,-360"/>
<text text-anchor="middle" x="401.5" y="-339.5" font-family="Sans" font-size="10.00" fill="#ffffff">OverlayParamInt</text>
</g>
<!-- OverlayParamInt&#45;&gt;OverlayParam -->
<g id="edge3" class="edge"><title>OverlayParamInt&#45;&gt;OverlayParam</title>
<path fill="none" stroke="black" d="M353.773,-342C308.713,-342 248,-342 248,-342 248,-342 248,-316.282 248,-316.282"/>
<polygon fill="black" stroke="black" points="251.5,-316.282 248,-306.282 244.5,-316.282 251.5,-316.282"/>
</g>
<!-- OverlayParamBool -->
<g id="node5" class="node"><title>OverlayParamBool</title>
<polygon fill="#2980b9" stroke="#2980b9" points="453.5,-306 349.5,-306 349.5,-270 453.5,-270 453.5,-306"/>
<text text-anchor="middle" x="401.5" y="-285.5" font-family="Sans" font-size="10.00" fill="#ffffff">OverlayParamBool</text>
</g>
<!-- OverlayParamBool&#45;&gt;OverlayParam -->
<g id="edge4" class="edge"><title>OverlayParamBool&#45;&gt;OverlayParam</title>
<path fill="none" stroke="black" d="M349.103,-288C349.103,-288 299.514,-288 299.514,-288"/>
<polygon fill="black" stroke="black" points="299.514,-284.5 289.514,-288 299.514,-291.5 299.514,-284.5"/>
</g>
<!-- Command -->
<g id="node6" class="node"><title>Command</title>
<polygon fill="#2980b9" stroke="#2980b9" points="157,-171 90,-171 90,-135 157,-135 157,-171"/>
<text text-anchor="middle" x="123.5" y="-150.5" font-family="Sans" font-size="10.00" fill="#ffffff">Command</text>
</g>
<!-- Command&#45;&gt;Setting -->
<g id="edge5" class="edge"><title>Command&#45;&gt;Setting</title>
<path fill="none" stroke="black" d="M132,-171.354C132,-182.07 132,-193.5 132,-193.5 132,-193.5 64.0401,-193.5 64.0401,-193.5"/>
<polygon fill="black" stroke="black" points="64.0401,-190 54.0401,-193.5 64.0401,-197 64.0401,-190"/>
</g>
<!-- CommandInt -->
<g id="node7" class="node"><title>CommandInt</title>
<polygon fill="#2980b9" stroke="#2980b9" points="287.5,-198 208.5,-198 208.5,-162 287.5,-162 287.5,-198"/>
<text text-anchor="middle" x="248" y="-177.5" font-family="Sans" font-size="10.00" fill="#ffffff">CommandInt</text>
</g>
<!-- CommandInt&#45;&gt;Command -->
<g id="edge6" class="edge"><title>CommandInt&#45;&gt;Command</title>
<path fill="none" stroke="black" d="M208.265,-166.5C208.265,-166.5 167.012,-166.5 167.012,-166.5"/>
<polygon fill="black" stroke="black" points="167.012,-163 157.012,-166.5 167.012,-170 167.012,-163"/>
</g>
<!-- CommandIntHex -->
<g id="node8" class="node"><title>CommandIntHex</title>
<polygon fill="#2980b9" stroke="#2980b9" points="450.5,-252 352.5,-252 352.5,-216 450.5,-216 450.5,-252"/>
<text text-anchor="middle" x="401.5" y="-231.5" font-family="Sans" font-size="10.00" fill="#ffffff">CommandIntHex</text>
</g>
<!-- CommandIntHex&#45;&gt;CommandInt -->
<g id="edge7" class="edge"><title>CommandIntHex&#45;&gt;CommandInt</title>
<path fill="none" stroke="black" d="M352.087,-219C307.214,-219 248,-219 248,-219 248,-219 248,-208.13 248,-208.13"/>
<polygon fill="black" stroke="black" points="251.5,-208.13 248,-198.13 244.5,-208.13 251.5,-208.13"/>
</g>
<!-- CommandBool -->
<g id="node9" class="node"><title>CommandBool</title>
<polygon fill="#2980b9" stroke="#2980b9" points="292,-144 204,-144 204,-108 292,-108 292,-144"/>
<text text-anchor="middle" x="248" y="-123.5" font-family="Sans" font-size="10.00" fill="#ffffff">CommandBool</text>
</g>
<!-- CommandBool&#45;&gt;Command -->
<g id="edge8" class="edge"><title>CommandBool&#45;&gt;Command</title>
<path fill="none" stroke="black" d="M203.755,-141C203.755,-141 167.033,-141 167.033,-141"/>
<polygon fill="black" stroke="black" points="167.033,-137.5 157.033,-141 167.033,-144.5 167.033,-137.5"/>
</g>
<!-- CommandBoolInv -->
<g id="node10" class="node"><title>CommandBoolInv</title>
<polygon fill="#2980b9" stroke="#2980b9" points="452,-144 351,-144 351,-108 452,-108 452,-144"/>
<text text-anchor="middle" x="401.5" y="-123.5" font-family="Sans" font-size="10.00" fill="#ffffff">CommandBoolInv</text>
</g>
<!-- CommandBoolInv&#45;&gt;CommandBool -->
<g id="edge9" class="edge"><title>CommandBoolInv&#45;&gt;CommandBool</title>
<path fill="none" stroke="black" d="M350.813,-132C350.813,-132 302.19,-132 302.19,-132"/>
<polygon fill="black" stroke="black" points="302.19,-128.5 292.19,-132 302.19,-135.5 302.19,-128.5"/>
</g>
<!-- CommandForceIgnore -->
<g id="node11" class="node"><title>CommandForceIgnore</title>
<polygon fill="#2980b9" stroke="#2980b9" points="463,-90 340,-90 340,-54 463,-54 463,-90"/>
<text text-anchor="middle" x="401.5" y="-69.5" font-family="Sans" font-size="10.00" fill="#ffffff">CommandForceIgnore</text>
</g>
<!-- CommandForceIgnore&#45;&gt;CommandBool -->
<g id="edge10" class="edge"><title>CommandForceIgnore&#45;&gt;CommandBool</title>
<path fill="none" stroke="black" d="M345,-90.1467C345,-103.74 345,-120 345,-120 345,-120 302.242,-120 302.242,-120"/>
<polygon fill="black" stroke="black" points="302.242,-116.5 292.242,-120 302.242,-123.5 302.242,-116.5"/>
</g>
<!-- CommandMaskMaster -->
<g id="node12" class="node"><title>CommandMaskMaster</title>
<polygon fill="#2980b9" stroke="#2980b9" points="464,-198 339,-198 339,-162 464,-162 464,-198"/>
<text text-anchor="middle" x="401.5" y="-177.5" font-family="Sans" font-size="10.00" fill="#ffffff">CommandMaskMaster</text>
</g>
<!-- CommandMaskMaster&#45;&gt;CommandInt -->
<g id="edge11" class="edge"><title>CommandMaskMaster&#45;&gt;CommandInt</title>
<path fill="none" stroke="black" d="M338.623,-180C338.623,-180 297.692,-180 297.692,-180"/>
<polygon fill="black" stroke="black" points="297.692,-176.5 287.692,-180 297.692,-183.5 297.692,-176.5"/>
</g>
<!-- CommandMaskDummy -->
<g id="node13" class="node"><title>CommandMaskDummy</title>
<polygon fill="#2980b9" stroke="#2980b9" points="630,-198 500,-198 500,-162 630,-162 630,-198"/>
<text text-anchor="middle" x="565" y="-177.5" font-family="Sans" font-size="10.00" fill="#ffffff">CommandMaskDummy</text>
</g>
<!-- CommandMaskDummy&#45;&gt;CommandMaskMaster -->
<g id="edge12" class="edge"><title>CommandMaskDummy&#45;&gt;CommandMaskMaster</title>
<path fill="none" stroke="black" d="M499.911,-180C499.911,-180 474.235,-180 474.235,-180"/>
<polygon fill="black" stroke="black" points="474.235,-176.5 464.235,-180 474.235,-183.5 474.235,-176.5"/>
</g>
<!-- CommandFilename -->
<g id="node14" class="node"><title>CommandFilename</title>
<polygon fill="#2980b9" stroke="#2980b9" points="303,-63 193,-63 193,-27 303,-27 303,-63"/>
<text text-anchor="middle" x="248" y="-42.5" font-family="Sans" font-size="10.00" fill="#ffffff">CommandFilename</text>
</g>
<!-- CommandFilename&#45;&gt;Command -->
<g id="edge13" class="edge"><title>CommandFilename&#45;&gt;Command</title>
<path fill="none" stroke="black" d="M198,-63.3738C198,-90.4769 198,-138 198,-138 198,-138 167.262,-138 167.262,-138"/>
<polygon fill="black" stroke="black" points="167.262,-134.5 157.262,-138 167.262,-141.5 167.262,-134.5"/>
</g>
<!-- CommandIncludedFile -->
<g id="node15" class="node"><title>CommandIncludedFile</title>
<polygon fill="#2980b9" stroke="#2980b9" points="462.5,-36 340.5,-36 340.5,-0 462.5,-0 462.5,-36"/>
<text text-anchor="middle" x="401.5" y="-15.5" font-family="Sans" font-size="10.00" fill="#ffffff">CommandIncludedFile</text>
</g>
<!-- CommandIncludedFile&#45;&gt;CommandFilename -->
<g id="edge14" class="edge"><title>CommandIncludedFile&#45;&gt;CommandFilename</title>
<path fill="none" stroke="black" d="M340.392,-31.5C340.392,-31.5 313.425,-31.5 313.425,-31.5"/>
<polygon fill="black" stroke="black" points="313.426,-28.0001 303.425,-31.5 313.425,-35.0001 313.426,-28.0001"/>
</g>
</g>
</svg>
